# Made in Blockbench 4.9.4
mtllib Arbre.mtl

o cube
v 0.0625 0 0.0625
v 0.0625 0 -0.0625
v -0.0625 0 0.0625
v -0.0625 0 -0.0625
v 0 0.6875 -0.0625
v 0 0.6875 0.0625
v 0.125 0.6875 -0.0625
v 0.0625 2.4375 0.0625
v 0.0625 2.4375 -0.0625
v -0.0625 2.4375 0.0625
v -0.0625 2.4375 -0.0625
v 0.125 0.6875 0.0625
v 0.03125 1.5625 -0.125
v 0.03125 1.5625 0
v -0.09375 1.5625 0
v -0.09375 1.5625 -0.125
v 0 3.3125 -0.0625
v 0.5 2.3125 0.4375
v 0.5 2.3125 -0.5625
v -0.5 2.3125 0.4375
v -0.5 2.3125 -0.5625
v 0 2.8125 -0.0625
v 0.625 1.5625 0.5625
v 0.625 1.5625 -0.6875
v -0.625 1.5625 0.5625
v -0.625 1.5625 -0.6875
v 0 2.4375 -0.0625
v 0.8750000000000001 0.6874999999999999 0.8125000000000001
v 0.8750000000000001 0.6874999999999999 -0.9375000000000001
v -0.8750000000000001 0.6874999999999999 0.8125000000000001
v -0.8750000000000001 0.6874999999999999 -0.9375000000000001
vt 0.1796875 0.046875
vt 0.1796875 0.1331671875
vt 0.1640625 0.1331671875
vt 0.1640625 0.046875
vt 0.546875 0.038012500000000005
vt 0.546875 0.12430390624999998
vt 0.53125 0.12430390624999998
vt 0.53125 0.038012500000000005
vt 0.015625 0.984375
vt 0.015625 1
vt 0 1
vt 0 0.984375
vt 0.146484375 0.06975546875000005
vt 0.154296875 0.15569296875000005
vt 0.138671875 0.15569296875000005
vt 0.130859375 0.06975546875000005
vt 0.509765625 0.05413046875000005
vt 0.501953125 0.14006796875000005
vt 0.486328125 0.14006796875000005
vt 0.494140625 0.05413046875000005
vt 0.015625 0.9609375
vt 0.015625 0.9765625
vt 0 0.9765625
vt 0 0.9609375
vt 0.53125 0.34375
vt 0.5234375 0.2343046875
vt 0.5390625 0.2343046875
vt 0.546875 0.34375
vt 0.130859375 0.375
vt 0.126953125 0.2653468750000001
vt 0.142578125 0.2653468750000001
vt 0.146484375 0.375
vt 0.1640625 0.35261328125
vt 0.171875 0.24316874999999993
vt 0.1875 0.24316874999999993
vt 0.1796875 0.35261328125
vt 0.494140625 0.359375
vt 0.498046875 0.2497218750000001
vt 0.513671875 0.2497218750000001
vt 0.509765625 0.359375
vt 0.1796875 0.1331671875
vt 0.1875 0.24316874999999993
vt 0.171875 0.24316874999999993
vt 0.1640625 0.1331671875
vt 0.154296875 0.15569296875000005
vt 0.142578125 0.2653468750000001
vt 0.126953125 0.2653468750000001
vt 0.138671875 0.15569296875000005
vt 0.546875 0.12430390624999998
vt 0.5390625 0.2343046875
vt 0.5234375 0.2343046875
vt 0.53125 0.12430390624999998
vt 0.501953125 0.14006796875000005
vt 0.513671875 0.2497218750000001
vt 0.498046875 0.2497218750000001
vt 0.486328125 0.14006796875000005
vt 0.7734375 0.34375
vt 0.7734375 0.46875
vt 0.6484375 0.46875
vt 0.6484375 0.34375
vt 0.0015393402201573925 0.6557508440716887
vt 0.11564815977984261 0.6047197035916327
vt 0.11564815977984255 0.7578125
vt 0.21247678706287382 0.8979373931645529
vt 0.3265857129371262 0.8469064904111783
vt 0.3265857129371262 1
vt 0.0015393402201574063 0.2885633440716887
vt 0.1156481597798426 0.23753220359163274
vt 0.11564815977984254 0.390625
vt 0.3687268402201574 0.3120008440716886
vt 0.4828356597798426 0.26096970359163274
vt 0.48283565977984255 0.4140625
vt 0.75 0.84375
vt 0.75 1
vt 0.59375 1
vt 0.59375 0.84375
vt 0.21383819790712263 0.34898471690905963
vt 0.35647430209287734 0.2851959696042997
vt 0.35647430209287734 0.4765625
vt 0.5888382510646291 0.5442981678165941
vt 0.7314742489353709 0.4805091827845549
vt 0.7314742489353709 0.671875
vt 0.5185256979071227 0.7005472169090597
vt 0.6611618020928773 0.6367584696042997
vt 0.6611618020928773 0.828125
vt 0.49508819790712266 0.38023471690905963
vt 0.6377243020928773 0.3164459696042996
vt 0.6377243020928773 0.5078125
vt 0.5859375 0.78125
vt 0.5859375 1
vt 0.3671875 1
vt 0.3671875 0.78125
vt 0.15796721643853834 0.6651409134912982
vt 0.35765778356146166 0.5758367148099078
vt 0.35765778356146166 0.84375
vt 0.0017172164385383243 0.8213909134912982
vt 0.20140778356146166 0.7320867148099078
vt 0.20140778356146166 1
vt 0.0017172695958749817 0.45420436439852896
vt 0.20140773040412502 0.3648999279903149
vt 0.20140773040412502 0.6328125
vt 0.31421721643853834 0.5088909134912982
vt 0.5139077835614616 0.41958671480990795
vt 0.5139077835614616 0.6875
vn 0.9958932064677039 -0.09053574604251853 0
vn -0.9958932064677039 0.09053574604251853 0
vn 0 -1 0
vn 0 0 1
vn 0 0 -1
vn 0 1 0
vn -0.9993628543475496 0.03569153051241249 0
vn 0 -0.07124704998790965 0.9974586998307351
vn 0.9993628543475496 -0.03569153051241249 0
vn 0 0.07124704998790965 -0.9974586998307351
vn 0.994309153919809 0.10653312363426524 0
vn 0 0.07124704998790965 0.9974586998307351
vn -0.994309153919809 -0.10653312363426524 0
vn 0 -0.07124704998790965 -0.9974586998307351
vn 0 -1 0
vn 0.8944271909999161 0.44721359549995804 0
vn 0 0.44721359549995804 0.8944271909999161
vn 0 0.44721359549995804 -0.8944271909999161
vn -0.8944271909999161 0.44721359549995804 0
vn 0 -1 0
vn 0.8944271909999161 0.44721359549995804 0
vn 0 0.44721359549995804 0.8944271909999161
vn 0 0.44721359549995804 -0.8944271909999161
vn -0.8944271909999161 0.44721359549995804 0
vn 0 -1 0
vn 0.894427190999916 0.44721359549995804 0
vn 0 0.44721359549995804 0.894427190999916
vn 0 0.44721359549995804 -0.894427190999916
vn -0.894427190999916 0.44721359549995804 0
usemtl m_27a6e15a-0d4f-d41c-796b-0fcd27dcbd1b
f 2/1/1 7/2/1 12/3/1 1/4/1
f 3/5/2 6/6/2 5/7/2 4/8/2
f 2/9/3 1/10/3 3/11/3 4/12/3
f 1/13/4 12/14/4 6/15/4 3/16/4
f 4/17/5 5/18/5 7/19/5 2/20/5
f 8/21/6 9/22/6 11/23/6 10/24/6
f 11/25/7 16/26/7 15/27/7 10/28/7
f 10/29/8 15/30/8 14/31/8 8/32/8
f 8/33/9 14/34/9 13/35/9 9/36/9
f 9/37/10 13/38/10 16/39/10 11/40/10
f 7/41/11 13/42/11 14/43/11 12/44/11
f 12/45/12 14/46/12 15/47/12 6/48/12
f 6/49/13 15/50/13 16/51/13 5/52/13
f 5/53/14 16/54/14 13/55/14 7/56/14
f 19/57/15 18/58/15 20/59/15 21/60/15
f 18/61/16 19/62/16 17/63/16
f 20/64/17 18/65/17 17/66/17
f 19/67/18 21/68/18 17/69/18
f 21/70/19 20/71/19 17/72/19
f 24/73/20 23/74/20 25/75/20 26/76/20
f 23/77/21 24/78/21 22/79/21
f 25/80/22 23/81/22 22/82/22
f 24/83/23 26/84/23 22/85/23
f 26/86/24 25/87/24 22/88/24
f 29/89/25 28/90/25 30/91/25 31/92/25
f 28/93/26 29/94/26 27/95/26
f 30/96/27 28/97/27 27/98/27
f 29/99/28 31/100/28 27/101/28
f 31/102/29 30/103/29 27/104/29