# Made in Blockbench 4.9.4
mtllib Terrain.mtl

o cuboid
v 3.125 0.5 3.125
v 3.125 0.5 -3.125
v 3.125 0 3.125
v 3.125 0 -3.125
v -3.125 0.5 3.125
v -3.125 0.5 -3.125
v -3.125 0 3.125
v -3.125 0 -3.125
vt 0.390625 0.85546875
vt 0 0.85546875
vt 0 0.82421875
vt 0.390625 0.82421875
vt 0.390625 0.9296875
vt 0.390625 0.9609375
vt 0 0.9609375
vt 0 0.9296875
vt 0 0.609375
vt 0.390625 0.609375
vt 0.390625 1
vt 0 1
vt 0.390625 0.609375
vt 0.390625 1
vt 0 1
vt 0 0.609375
vt 0.390625 0.890625
vt 0.390625 0.921875
vt 0 0.921875
vt 0 0.890625
vt 0.390625 0.8046875
vt 0 0.8046875
vt 0 0.7734375
vt 0.390625 0.7734375
vn 1 0 0
vn -1 0 0
vn 0 1 0
vn 0 -1 0
vn 0 0 1
vn 0 0 -1
usemtl m_d4cfb44b-fdc2-d25f-866b-243881586569
f 2/1/1 1/2/1 3/3/1 4/4/1
f 7/5/2 5/6/2 6/7/2 8/8/2
f 5/9/3 1/10/3 2/11/3 6/12/3
f 4/13/4 3/14/4 7/15/4 8/16/4
f 3/17/5 1/18/5 5/19/5 7/20/5
f 6/21/6 2/22/6 4/23/6 8/24/6