# Made in Blockbench 4.9.4
mtllib maison.mtl

o cube
v 1.5 1.25 0.5625
v 1.5 1.25 -0.6875
v 1.5 0 0.5625
v 1.5 0 -0.6875
v -1.5 1.25 -0.6875
v -1.5 1.25 0.5625
v -1.5 0 -0.6875
v -1.5 0 0.5625
vt 0 0.8359375
vt 0.375 0.8359375
vt 0.375 0.6796875
vt 0 0.6796875
vt 0.1640625 0.359375
vt 0.3203125 0.359375
vt 0.3203125 0.203125
vt 0.1640625 0.203125
vt 0 0.671875
vt 0.375 0.671875
vt 0.375 0.515625
vt 0 0.515625
vt 0.1640625 0.359375
vt 0.3203125 0.359375
vt 0.3203125 0.203125
vt 0.1640625 0.203125
vt 0.7578125 0.84375
vt 0.3828125 0.84375
vt 0.3828125 1
vt 0.7578125 1
vt 0.7578125 0.8359375
vt 0.3828125 0.8359375
vt 0.3828125 0.6796875
vt 0.7578125 0.6796875
vn 0 0 -1
vn 1 0 0
vn 0 0 1
vn -1 0 0
vn 0 1 0
vn 0 -1 0
usemtl m_167c46fe-7a7e-2b53-4dde-88387be70a8b
f 4/4/1 7/3/1 5/2/1 2/1/1
f 3/8/2 4/7/2 2/6/2 1/5/2
f 8/12/3 3/11/3 1/10/3 6/9/3
f 7/16/4 8/15/4 6/14/4 5/13/4
f 6/20/5 1/19/5 2/18/5 5/17/5
f 7/24/6 4/23/6 3/22/6 8/21/6
o pyramid
v 0 2.125 -0.0625
v 1.5000000000000004 1.25 0.5625
v 1.5000000000000004 1.25 -0.6875
v -1.5000000000000004 1.25 0.5625
v -1.5000000000000004 1.25 -0.6875
vt 0.375 0.84375
vt 0.375 1
vt 0 1
vt 0 0.84375
vt 0.4928972593335833 0.298774957728576
vt 0.6399152406664167 0.24586205131795968
vt 0.6399152406664167 0.4765625
vt 0.359375 0.49058828125
vt 0.734375 0.49058828125
vt 0.546875 0.625
vt 0.734375 0.49058828125
vt 0.359375 0.49058828125
vt 0.546875 0.625
vt 0.4928972593335833 0.298774957728576
vt 0.6399152406664167 0.24586205131795968
vt 0.6399152406664167 0.4765625
vn 0 -1 0
vn 0.5038710255240861 0.8637789008984337 0
vn 0 0.5812381937190965 0.8137334712067351
vn 0 0.5812381937190965 -0.8137334712067351
vn -0.5038710255240861 0.8637789008984337 0
usemtl m_167c46fe-7a7e-2b53-4dde-88387be70a8b
f 11/25/7 10/26/7 12/27/7 13/28/7
f 10/29/8 11/30/8 9/31/8
f 12/32/9 10/33/9 9/34/9
f 11/35/10 13/36/10 9/37/10
f 13/38/11 12/39/11 9/40/11
o plane
v 0.5 0 1.5625
v 0.5 0 0.5625
v -0.5 0 1.5625
v -0.5 0 0.5625
vt 0.7734375 0.3515625
vt 0.7734375 0.4765625
vt 0.6484375 0.4765625
vt 0.6484375 0.3515625
vn 0 1 0
usemtl m_167c46fe-7a7e-2b53-4dde-88387be70a8b
f 14/41/12 15/42/12 17/43/12 16/44/12